<svg width="57" height="90" viewBox="0 0 57 90" fill="none" xmlns="http://www.w3.org/2000/svg">
<path d="M28.4654 89.7728L5.37797 82.5624L0.233032 17.6426H56.767L51.6166 82.5522L28.4654 89.7728Z" fill="#264DE4"/>
<path d="M47.2073 78.4189L51.6087 22.9507H28.5V84.2536L47.2073 78.4189Z" fill="#2965F1"/>
<path d="M12.0277 47.0283L12.662 54.9904H28.5V47.0283H12.0277Z" fill="#EBEBEB"/>
<path d="M10.7531 30.9126L11.3965 38.8748H28.5V30.9126H10.7531Z" fill="#EBEBEB"/>
<path d="M28.5001 67.707L28.469 67.7163L20.5868 65.3219L20.0829 58.9717H12.9783L13.9698 71.4734L28.4675 76.0011L28.5001 75.991V67.707Z" fill="#EBEBEB"/>
<path d="M13.5379 0H22.1099V4.03275H17.1226V8.06551H22.1099V12.0983H13.5379V0Z" fill="black"/>
<path d="M23.8243 0H32.3964V3.50674H27.409V4.20809H32.3964V12.2736H23.8243V8.59152H28.8117V7.89017H23.8243V0Z" fill="black"/>
<path d="M34.1108 0H42.6829V3.50674H37.6955V4.20809H42.6829V12.2736H34.1108V8.59152H39.0982V7.89017H34.1108V0Z" fill="black"/>
<path d="M44.927 47.0282L46.2047 30.9126H28.4756V38.8748H38.4485L37.8045 47.0282H28.4756V54.9902H37.1907L36.3692 65.3166L28.4756 67.7134V75.997L42.9848 71.4732L43.0912 70.128L44.7544 49.1662L44.927 47.0282Z" fill="white"/>
</svg>
