<svg width="88" height="116" viewBox="0 0 88 116" fill="none" xmlns="http://www.w3.org/2000/svg">
<path d="M56.0446 63.1595C60.7965 60.9734 64.8214 57.5548 67.6672 53.2877H75.0079C76.6281 53.1959 78.145 52.491 79.2277 51.3266C80.3104 50.1623 80.8711 48.6329 80.7875 47.072V32.4673C80.7901 31.6974 80.6472 30.9333 80.3657 30.2127V30.172C78.2133 23.0226 74.4704 16.4101 69.3969 10.7939L69.1227 10.4892C65.7991 6.94259 61.67 4.18288 57.0571 2.42515C52.2613 0.642238 47.1258 -0.135054 41.9934 0.145167C36.8609 0.425387 31.8495 1.75667 27.2938 4.05015C24.1395 5.73588 21.2958 7.91148 18.8774 10.4892L18.6032 10.7939C13.5297 16.4101 9.78681 23.0226 7.63442 30.172V30.2127C7.35291 30.9333 7.20995 31.6974 7.21255 32.4673V47.072C7.12901 48.6329 7.68973 50.1623 8.77243 51.3266C9.85513 52.491 11.372 53.1959 12.9922 53.2877H20.3329C23.1787 57.5548 27.2036 60.9734 31.9555 63.1595C22.8852 65.4861 14.8648 70.6281 9.1369 77.789C3.40901 84.9499 0.293377 93.73 0.272705 102.769V113.86C0.272705 114.398 0.494941 114.915 0.890525 115.296C1.28611 115.677 1.82264 115.891 2.38208 115.891H85.618C86.1775 115.891 86.714 115.677 87.1096 115.296C87.5052 114.915 87.7274 114.398 87.7274 113.86V102.769C87.7067 93.73 84.5911 84.9499 78.8632 77.789C73.1353 70.6281 65.1149 65.4861 56.0446 63.1595ZM76.5688 32.4673V47.072C76.5688 48.2095 75.8305 49.2252 75.0079 49.2252H69.9243C70.2829 48.372 70.6204 47.4986 70.8946 46.6048C70.8946 46.5845 70.8946 46.5845 70.9157 46.5642C72.5879 41.2563 72.5142 35.5802 70.7047 30.3142H75.0079C75.8305 30.3142 76.5688 31.3298 76.5688 32.4673ZM12.9922 49.2252C12.1696 49.2252 11.4313 48.2095 11.4313 47.072V32.4673C11.4313 31.3298 12.1696 30.3142 12.9922 30.3142H17.2954C15.1716 36.5013 15.4488 43.2199 18.0758 49.2252H12.9922ZM13.5407 26.2517C15.534 21.5966 18.3058 17.2875 21.7461 13.4955L21.9993 13.2314C24.0976 10.9746 26.58 9.07872 29.3399 7.62515C33.3557 5.63364 37.7616 4.47787 42.2715 4.2329C46.7814 3.98794 51.2943 4.65927 55.5172 6.20328C59.5316 7.72929 63.1212 10.1357 66.0008 13.2314L66.254 13.4955C69.6942 17.2875 72.4661 21.5966 74.4594 26.2517H68.9329C66.5661 21.8508 62.9887 18.161 58.5915 15.5854C54.1944 13.0098 49.1467 11.6476 44 11.6476C38.8534 11.6476 33.8057 13.0098 29.4086 15.5854C25.0114 18.161 21.434 21.8508 19.0672 26.2517H13.5407ZM20.1008 38.7236C20.0969 35.4844 20.8031 32.2808 22.1733 29.3225C23.5434 26.3641 25.5467 23.7177 28.052 21.5561C30.5574 19.3946 33.5083 17.7667 36.7119 16.7788C39.9155 15.791 43.2996 15.4656 46.6428 15.8238C49.9859 16.1819 53.213 17.2157 56.1127 18.8574C59.0125 20.4992 61.5197 22.7119 63.4704 25.3508C65.4211 27.9898 66.7713 30.9955 67.4327 34.1715C68.0941 37.3475 68.0518 40.6222 67.3086 43.7814H60.2633C59.8305 42.5946 59.0259 41.5664 57.9604 40.8387C56.8949 40.111 55.6211 39.7198 54.3149 39.7189H47.9868C46.3084 39.7189 44.6989 40.3609 43.5121 41.5037C42.3254 42.6465 41.6586 44.1965 41.6586 45.8127C41.6586 47.4288 42.3254 48.9788 43.5121 50.1216C44.6989 51.2644 46.3084 51.9064 47.9868 51.9064H54.3149C55.6211 51.9055 56.8949 51.5143 57.9604 50.7866C59.0259 50.0589 59.8305 49.0307 60.2633 47.8439H65.9376C63.7582 52.7047 59.9049 56.6931 55.0275 59.1368C50.15 61.5804 44.5467 62.3297 39.1623 61.2584C33.7779 60.187 28.9419 57.3605 25.4696 53.2555C21.9973 49.1505 20.1011 44.0181 20.1008 38.7236ZM56.4243 45.7923V45.833C56.4232 46.0985 56.3677 46.3611 56.261 46.606C56.1544 46.8508 55.9986 47.0729 55.8027 47.2597C55.6068 47.4465 55.3745 47.5943 55.1192 47.6945C54.8639 47.7947 54.5906 47.8455 54.3149 47.8439H47.9868C47.4273 47.8439 46.8908 47.6299 46.4952 47.249C46.0996 46.868 45.8774 46.3514 45.8774 45.8127C45.8774 45.2739 46.0996 44.7573 46.4952 44.3763C46.8908 43.9954 47.4273 43.7814 47.9868 43.7814H54.3149C54.5906 43.7798 54.8639 43.8306 55.1192 43.9308C55.3745 44.0311 55.6068 44.1788 55.8027 44.3656C55.9986 44.5524 56.1544 44.7745 56.261 45.0194C56.3677 45.2642 56.4232 45.5269 56.4243 45.7923ZM83.5086 111.828H4.49146V102.769C4.50708 92.9688 8.5568 83.5744 15.7531 76.6447C22.9493 69.7149 32.705 65.8152 42.8821 65.8002H45.118C55.295 65.8152 65.0508 69.7149 72.247 76.6447C79.4433 83.5744 83.493 92.9688 83.5086 102.769V111.828Z" fill="black"/>
</svg>
