<svg width="81" height="74" viewBox="0 0 81 74" fill="none" xmlns="http://www.w3.org/2000/svg">
<path d="M54.3936 64.1286C53.9791 63.8764 53.6179 63.5382 53.3308 63.1284C53.1982 62.9394 53.0862 62.7396 52.9934 62.5331H5.88793V16.1034H69.8268V46.4203C71.1918 46.5436 72.3371 47.4401 72.818 48.6678C73.2438 48.4344 73.7183 48.2902 74.2171 48.2462C74.5545 48.2168 74.8896 48.2378 75.2146 48.302V4.5367C75.2146 2.06087 73.2007 0.0466309 70.7251 0.0466309H4.98988C2.51424 0.0466309 0.5 2.06087 0.5 4.5367V63.4313C0.5 65.9072 2.51424 67.9212 4.98988 67.9212H53.9844C53.6021 67.147 53.5114 66.2729 53.7364 65.432C53.8661 64.9483 54.0905 64.5071 54.3936 64.1286ZM64.8963 7.58635C64.8963 6.67077 65.6385 5.92836 66.5541 5.92836H68.2119C69.1277 5.92836 69.8697 6.67058 69.8697 7.58635V9.46532C69.8697 10.3809 69.1275 11.1231 68.2119 11.1231H66.5541C65.6383 11.1231 64.8963 10.3809 64.8963 9.46532V7.58635ZM57.1874 7.58635C57.1874 6.67077 57.9296 5.92836 58.8452 5.92836H60.5032C61.419 5.92836 62.161 6.67058 62.161 7.58635V9.46532C62.161 10.3809 61.4188 11.1231 60.5032 11.1231H58.8452C57.9296 11.1231 57.1874 10.3809 57.1874 9.46532V7.58635ZM49.4783 7.58635C49.4783 6.67077 50.2207 5.92836 51.1361 5.92836H52.7939C53.7097 5.92836 54.4519 6.67058 54.4519 7.58635V9.46532C54.4519 10.3809 53.7097 11.1231 52.7939 11.1231H51.1361C50.2207 11.1231 49.4783 10.3809 49.4783 9.46532V7.58635Z" fill="black"/>
<path d="M80.4894 60.9668L79.9912 58.1415C79.9239 57.7611 79.5614 57.507 79.1806 57.574L76.6681 58.0168C76.3666 57.309 75.9814 56.6461 75.5242 56.0393L77.1652 54.0832C77.2844 53.9414 77.3426 53.7576 77.3265 53.5726C77.3102 53.3876 77.221 53.2169 77.0789 53.0975L74.8816 51.2534C74.7395 51.1341 74.5552 51.0762 74.3704 51.0924C74.1855 51.1086 74.0148 51.1975 73.8955 51.3397L72.256 53.2943C71.5829 52.9514 70.863 52.6869 70.1088 52.5124V49.9612C70.1088 49.5748 69.7954 49.2612 69.4091 49.2612H66.54C66.1539 49.2612 65.8403 49.5748 65.8403 49.9612V52.5124C65.0857 52.6867 64.3665 52.9514 63.6931 53.2943L62.0532 51.3399C61.8048 51.0438 61.3635 51.0053 61.0673 51.2536L58.8698 53.0975C58.7277 53.2169 58.6387 53.3876 58.6223 53.5726C58.6063 53.7576 58.6642 53.9416 58.7835 54.0837L60.4247 56.0395C59.9683 56.6461 59.5823 57.3094 59.2807 58.017L56.7683 57.574C56.3884 57.5072 56.0251 57.7611 55.9577 58.1415L55.4597 60.9668C55.4275 61.1495 55.4692 61.3373 55.5754 61.4895C55.6822 61.6417 55.844 61.7452 56.0269 61.7774L58.5412 62.2205C58.5821 62.9995 58.7178 63.7531 58.9361 64.4708L56.7262 65.7462C56.5654 65.8386 56.4483 65.9918 56.4001 66.1709C56.3521 66.3501 56.3774 66.541 56.47 66.7018L57.9043 69.1862C57.9967 69.347 58.1499 69.4642 58.3289 69.5122C58.3886 69.5282 58.4493 69.536 58.5101 69.536C58.6319 69.536 58.7524 69.5044 58.8599 69.4423L61.0715 68.1653C61.5916 68.7225 62.1787 69.2163 62.8204 69.6339L61.9471 72.033C61.8838 72.2075 61.892 72.3999 61.9705 72.5681C62.049 72.7363 62.1909 72.8664 62.3652 72.9297L65.0605 73.9106C65.1379 73.9388 65.219 73.9533 65.3 73.9533C65.401 73.9533 65.5025 73.9314 65.596 73.8876C65.7643 73.8093 65.894 73.6671 65.9574 73.4926L66.8305 71.0936C67.2049 71.1389 67.5859 71.1624 67.9724 71.1624C68.359 71.1624 68.74 71.1385 69.1143 71.0936L69.9876 73.4926C70.0509 73.6671 70.1812 73.8093 70.349 73.8876C70.4424 73.9312 70.5435 73.9533 70.6451 73.9533C70.7258 73.9533 70.807 73.9392 70.8843 73.9106L73.58 72.9297C73.754 72.8664 73.8961 72.7359 73.9744 72.5681C74.0529 72.3999 74.0612 72.2075 73.9978 72.033L73.1245 69.6343C73.7656 69.2167 74.3527 68.7225 74.8734 68.1657L77.085 69.4426C77.1922 69.5044 77.313 69.5364 77.4348 69.5364C77.4953 69.5364 77.5567 69.5282 77.6159 69.5126C77.7952 69.4646 77.948 69.347 78.0406 69.1866L79.4749 66.7018C79.5675 66.5414 79.5928 66.3501 79.5448 66.1709C79.4966 65.9922 79.3795 65.839 79.2187 65.7462L77.0092 64.4712C77.2275 63.7533 77.3627 62.9997 77.4037 62.2209L79.918 61.7776C80.1009 61.7454 80.2632 61.6419 80.3695 61.4897C80.4798 61.3373 80.5215 61.1495 80.4894 60.9668ZM67.9747 65.4563C65.8496 65.4563 64.1265 63.7331 64.1265 61.6078C64.1265 59.4825 65.8498 57.7596 67.9747 57.7596C70.1 57.7596 71.8232 59.4825 71.8232 61.6078C71.8232 63.7331 70.1 65.4563 67.9747 65.4563Z" fill="black"/>
<path d="M31.8757 41.8403C31.8757 40.935 31.3451 40.1035 30.5238 39.7221L23.0073 36.2297L30.524 32.7369C31.3451 32.3551 31.8757 31.5238 31.8757 30.6189V30.5581C31.8757 29.756 31.472 29.0197 30.7964 28.5894C30.4227 28.3507 29.9873 28.2244 29.5379 28.2244C29.1992 28.2244 28.8592 28.2989 28.5549 28.4402L16.5381 34.0284C15.7172 34.4101 15.187 35.2415 15.187 36.1462V36.3133C15.187 37.2169 15.717 38.0477 16.5383 38.4314L28.5563 44.0201C28.867 44.1639 29.1979 44.2369 29.5397 44.2369C29.9851 44.2369 30.419 44.1104 30.7964 43.8704C31.4724 43.4383 31.8758 42.7026 31.8758 41.9015L31.8757 41.8403Z" fill="black"/>
<path d="M43.7322 22.5303C43.2939 21.9302 42.5888 21.572 41.846 21.572H41.7862C40.7662 21.572 39.872 22.2245 39.5613 23.1944L31.6438 47.7264C31.4184 48.4347 31.5453 49.2148 31.9831 49.8148C32.4214 50.4145 33.1265 50.7728 33.8693 50.7728H33.9293C34.9489 50.7728 35.8426 50.1201 36.1529 49.1505L44.0694 24.6203C44.2969 23.9126 44.1708 23.1313 43.7322 22.5303Z" fill="black"/>
<path d="M59.1765 34.0282L47.1595 28.4401C46.8562 28.2991 46.5167 28.2246 46.178 28.2246C45.7288 28.2246 45.2933 28.3505 44.9197 28.5889C44.243 29.02 43.8394 29.7561 43.8394 30.5581V30.6189C43.8394 31.5231 44.3695 32.3546 45.1914 32.7379L52.7077 36.2299L45.1912 39.7221C44.3699 40.1035 43.8394 40.9351 43.8394 41.8404V41.9015C43.8394 42.7026 44.243 43.4382 44.9193 43.8706C45.2954 44.1103 45.7298 44.237 46.1757 44.237C46.5171 44.237 46.8477 44.164 47.1605 44.0196L59.1781 38.4309C59.9986 38.0481 60.5284 37.2171 60.5284 36.3136V36.1465C60.5278 35.2416 59.9976 34.4102 59.1765 34.0282Z" fill="black"/>
</svg>
