<svg width="66" height="56" viewBox="0 0 66 56" fill="none" xmlns="http://www.w3.org/2000/svg">
<path d="M59.25 23.5418V49.7918H47.5833V23.5418H59.25ZM62.1667 17.7085H44.6667C43.8931 17.7085 43.1513 18.0158 42.6043 18.5628C42.0573 19.1097 41.75 19.8516 41.75 20.6252V52.7085C41.75 53.482 42.0573 54.2239 42.6043 54.7709C43.1513 55.3179 43.8931 55.6252 44.6667 55.6252H62.1667C62.9402 55.6252 63.6821 55.3179 64.2291 54.7709C64.776 54.2239 65.0833 53.482 65.0833 52.7085V20.6252C65.0833 19.8516 64.776 19.1097 64.2291 18.5628C63.6821 18.0158 62.9402 17.7085 62.1667 17.7085Z" fill="black"/>
<path d="M53.4167 0.208496H8.20835C7.43481 0.208496 6.69294 0.515787 6.14596 1.06277C5.59898 1.60975 5.29169 2.35161 5.29169 3.12516V35.2085C5.29169 35.982 5.59898 36.7239 6.14596 37.2709C6.69294 37.8179 7.43481 38.1252 8.20835 38.1252H35.9167V32.2918H11.125V6.04183H50.5V11.8752H56.3334V3.12516C56.3334 2.35161 56.0261 1.60975 55.4791 1.06277C54.9321 0.515787 54.1902 0.208496 53.4167 0.208496Z" fill="black"/>
<path d="M35.9167 43.9585V49.7918H3.83335C3.05981 49.7918 2.31794 49.4845 1.77096 48.9376C1.22398 48.3906 0.916687 47.6487 0.916687 46.8752C0.916687 46.1016 1.22398 45.3597 1.77096 44.8128C2.31794 44.2658 3.05981 43.9585 3.83335 43.9585H35.9167Z" fill="black"/>
</svg>
