<svg width="97" height="96" viewBox="0 0 97 96" fill="none" xmlns="http://www.w3.org/2000/svg">
<path d="M48.5 60.4998C55.4036 60.4998 61 54.9034 61 47.9998C61 41.0963 55.4036 35.4998 48.5 35.4998C41.5965 35.4998 36 41.0963 36 47.9998C36 54.9034 41.5965 60.4998 48.5 60.4998Z" stroke="#1E1E1E" stroke-width="4" stroke-linecap="round" stroke-linejoin="round"/>
<path d="M79.3334 60.4998C78.7787 61.7566 78.6133 63.1506 78.8583 64.5023C79.1034 65.8539 79.7478 67.1012 80.7084 68.0832L80.9584 68.3332C81.7332 69.1071 82.3478 70.0262 82.7672 71.0378C83.1866 72.0495 83.4024 73.1339 83.4024 74.229C83.4024 75.3241 83.1866 76.4085 82.7672 77.4202C82.3478 78.4318 81.7332 79.3509 80.9584 80.1248C80.1844 80.8996 79.2653 81.5143 78.2537 81.9337C77.242 82.353 76.1577 82.5689 75.0625 82.5689C73.9674 82.5689 72.883 82.353 71.8714 81.9337C70.8597 81.5143 69.9406 80.8996 69.1667 80.1248L68.9167 79.8748C67.9347 78.9143 66.6875 78.2699 65.3358 78.0248C63.9842 77.7797 62.5901 77.9452 61.3334 78.4998C60.101 79.028 59.05 79.905 58.3096 81.0229C57.5693 82.1408 57.172 83.4507 57.1667 84.7915V85.4998C57.1667 87.71 56.2887 89.8296 54.7259 91.3924C53.1631 92.9552 51.0435 93.8332 48.8334 93.8332C46.6232 93.8332 44.5036 92.9552 42.9408 91.3924C41.378 89.8296 40.5 87.71 40.5 85.4998V85.1248C40.4678 83.7457 40.0213 82.4082 39.2188 81.2861C38.4163 80.164 37.2948 79.3094 36 78.8332C34.7433 78.2785 33.3492 78.1131 31.9976 78.3582C30.6459 78.6032 29.3987 79.2476 28.4167 80.2082L28.1667 80.4582C27.3927 81.233 26.4737 81.8476 25.462 82.267C24.4504 82.6864 23.366 82.9022 22.2709 82.9022C21.1757 82.9022 20.0913 82.6864 19.0797 82.267C18.068 81.8476 17.149 81.233 16.375 80.4582C15.6002 79.6842 14.9856 78.7652 14.5662 77.7535C14.1468 76.7419 13.931 75.6575 13.931 74.5623C13.931 73.4672 14.1468 72.3828 14.5662 71.3712C14.9856 70.3595 15.6002 69.4404 16.375 68.6665L16.625 68.4165C17.5856 67.4345 18.23 66.1873 18.475 64.8356C18.7201 63.484 18.5547 62.0899 18 60.8332C17.4718 59.6008 16.5948 58.5498 15.477 57.8095C14.3591 57.0691 13.0491 56.6719 11.7084 56.6665H11C8.78988 56.6665 6.67027 55.7885 5.10746 54.2257C3.54466 52.6629 2.66669 50.5433 2.66669 48.3332C2.66669 46.123 3.54466 44.0034 5.10746 42.4406C6.67027 40.8778 8.78988 39.9998 11 39.9998H11.375C12.7542 39.9676 14.0917 39.5212 15.2138 38.7186C16.3358 37.9161 17.1905 36.7946 17.6667 35.4998C18.2213 34.2431 18.3868 32.849 18.1417 31.4974C17.8966 30.1457 17.2523 28.8985 16.2917 27.9165L16.0417 27.6665C15.2669 26.8926 14.6522 25.9735 14.2329 24.9618C13.8135 23.9502 13.5976 22.8658 13.5976 21.7707C13.5976 20.6755 13.8135 19.5912 14.2329 18.5795C14.6522 17.5679 15.2669 16.6488 16.0417 15.8748C16.8156 15.1 17.7347 14.4854 18.7464 14.066C19.758 13.6466 20.8424 13.4308 21.9375 13.4308C23.0327 13.4308 24.117 13.6466 25.1287 14.066C26.1403 14.4854 27.0594 15.1 27.8334 15.8748L28.0834 16.1248C29.0654 17.0854 30.3126 17.7298 31.6642 17.9749C33.0159 18.2199 34.41 18.0545 35.6667 17.4998H36C37.2324 16.9717 38.2834 16.0947 39.0237 14.9768C39.7641 13.8589 40.1613 12.5489 40.1667 11.2082V10.4998C40.1667 8.2897 41.0447 6.17008 42.6075 4.60728C44.1703 3.04448 46.2899 2.1665 48.5 2.1665C50.7102 2.1665 52.8298 3.04448 54.3926 4.60728C55.9554 6.17008 56.8334 8.2897 56.8334 10.4998V10.8748C56.8387 12.2156 57.236 13.5256 57.9763 14.6434C58.7166 15.7613 59.7677 16.6383 61 17.1665C62.2568 17.7212 63.6508 17.8866 65.0025 17.6415C66.3541 17.3964 67.6014 16.7521 68.5834 15.7915L68.8334 15.5415C69.6073 14.7667 70.5264 14.152 71.538 13.7327C72.5497 13.3133 73.6341 13.0974 74.7292 13.0974C75.8243 13.0974 76.9087 13.3133 77.9204 13.7327C78.932 14.152 79.8511 14.7667 80.625 15.5415C81.3998 16.3154 82.0145 17.2345 82.4339 18.2462C82.8532 19.2578 83.0691 20.3422 83.0691 21.4373C83.0691 22.5325 82.8532 23.6169 82.4339 24.6285C82.0145 25.6402 81.3998 26.5592 80.625 27.3332L80.375 27.5832C79.4145 28.5652 78.7701 29.8124 78.525 31.1641C78.2799 32.5157 78.4454 33.9098 79 35.1665V35.4998C79.5282 36.7322 80.4052 37.7832 81.5231 38.5236C82.641 39.2639 83.9509 39.6612 85.2917 39.6665H86C88.2102 39.6665 90.3298 40.5445 91.8926 42.1073C93.4554 43.6701 94.3334 45.7897 94.3334 47.9998C94.3334 50.21 93.4554 52.3296 91.8926 53.8924C90.3298 55.4552 88.2102 56.3332 86 56.3332H85.625C84.2842 56.3385 82.9743 56.7358 81.8564 57.4761C80.7385 58.2164 79.8615 59.2675 79.3334 60.4998Z" stroke="#1E1E1E" stroke-width="4" stroke-linecap="round" stroke-linejoin="round"/>
</svg>
