<svg width="126" height="125" viewBox="0 0 126 125" fill="none" xmlns="http://www.w3.org/2000/svg">
<path d="M119.818 45.4545H111.224C110.623 43.7549 109.93 42.086 109.15 40.4561L115.229 34.3765C117.448 32.1576 117.448 28.5602 115.23 26.3413L99.1591 10.2705C98.0936 9.20492 96.6481 8.60606 95.1413 8.60606C93.6345 8.60606 92.1894 9.20455 91.1239 10.2705L85.0439 16.35C83.4136 15.5693 81.7455 14.8773 80.0455 14.2758V5.68182C80.0455 2.54394 77.5015 0 74.3636 0H51.6364C48.4985 0 45.9545 2.54394 45.9545 5.68182V14.2758C44.2545 14.8773 42.586 15.5697 40.9564 16.35L34.8765 10.2705C32.658 8.05152 29.0602 8.05152 26.8413 10.2705L10.7705 26.3413C8.55152 28.5602 8.55152 32.1576 10.7705 34.3765L16.85 40.4564C16.0697 42.0864 15.3777 43.7545 14.7761 45.4545H6.18182C3.04394 45.4545 0.5 47.9985 0.5 51.1364V73.8636C0.5 77.0015 3.04394 79.5455 6.18182 79.5455H14.7761C15.3777 81.2451 16.0701 82.914 16.85 84.5436L10.7705 90.6235C9.70492 91.689 9.10606 93.1341 9.10606 94.6409C9.10606 96.1481 9.70455 97.5932 10.7705 98.6587L26.8417 114.729C29.0606 116.948 32.658 116.948 34.8765 114.729L40.9568 108.65C42.5871 109.43 44.2549 110.123 45.9545 110.724V119.318C45.9545 122.456 48.4985 125 51.6364 125H74.3636C77.5015 125 80.0455 122.456 80.0455 119.318V110.724C81.7455 110.122 83.414 109.43 85.0439 108.65L91.1242 114.729C93.3428 116.948 96.9401 116.948 99.1591 114.729L115.23 98.6583C117.448 96.4394 117.448 92.842 115.23 90.6231L109.15 84.5436C109.931 82.9136 110.623 81.2451 111.225 79.5451H119.818C122.956 79.5451 125.5 77.0011 125.5 73.8633V51.136C125.5 47.9985 122.956 45.4545 119.818 45.4545ZM114.136 68.1818H107.022C104.429 68.1818 102.166 69.9371 101.52 72.4485C100.597 76.0352 99.1663 79.4837 97.267 82.6977C95.9481 84.9299 96.3076 87.7723 98.1413 89.6057L103.177 94.6413L95.1417 102.677L90.1057 97.6413C88.2727 95.8083 85.4307 95.4485 83.1989 96.767C79.9848 98.6655 76.5356 100.097 72.9477 101.02C70.4367 101.666 68.6818 103.93 68.6818 106.523V113.636H57.3182V106.523C57.3182 103.93 55.5633 101.667 53.0527 101.02C49.4651 100.097 46.0167 98.6659 42.8019 96.767C40.5693 95.4481 37.728 95.808 35.8951 97.6413L30.8591 102.677L22.8231 94.6409L27.8587 89.6053C29.6924 87.772 30.0519 84.9299 28.733 82.6977C26.8345 79.4845 25.4038 76.0356 24.4799 72.4473C23.8341 69.9367 21.5701 68.1818 18.9777 68.1818H11.8636V56.8182H18.9777C21.5701 56.8182 23.8337 55.0633 24.4799 52.5527C25.4034 48.964 26.8345 45.5152 28.733 42.3019C30.0519 40.0697 29.6924 37.2277 27.8587 35.3943L22.8235 30.3587L30.8591 22.3235L35.8947 27.3587C37.728 29.192 40.5705 29.5519 42.8023 28.233C46.0159 26.3341 49.4652 24.9034 53.053 23.9795C55.5633 23.3337 57.3182 21.0701 57.3182 18.4773V11.3636H68.6818V18.4773C68.6818 21.0697 70.4367 23.3333 72.9473 23.9795C76.536 24.9034 79.9848 26.3341 83.1985 28.233C85.4311 29.5515 88.2727 29.192 90.1061 27.3587L95.1417 22.3235L103.177 30.3587L98.1413 35.3943C96.3076 37.2277 95.9481 40.0701 97.267 42.3023C99.1663 45.5159 100.597 48.9644 101.52 52.5515C102.166 55.0625 104.43 56.8178 107.022 56.8178H114.136V68.1818Z" fill="black"/>
<path d="M71.1037 50.1492L58.0756 63.1768L54.5173 59.6189C52.2987 57.3999 48.701 57.3999 46.4821 59.6189C44.2631 61.8378 44.2631 65.4351 46.4821 67.6541L54.0578 75.2298C55.1673 76.3393 56.6215 76.8939 58.0756 76.8939C59.5298 76.8939 60.984 76.3393 62.0931 75.2295L79.1385 58.184C81.3575 55.9651 81.3575 52.3677 79.1385 50.1488C76.92 47.9298 73.3222 47.9298 71.1037 50.1492Z" fill="black"/>
</svg>
