<svg width="20" height="21" viewBox="0 0 20 21" fill="none" xmlns="http://www.w3.org/2000/svg">
<path d="M10 0.522949C4.5 0.522949 0 5.01295 0 10.5429C0 15.5429 3.66 19.6929 8.44 20.4429V13.4429H5.9V10.5429H8.44V8.33295C8.44 5.82295 9.93 4.44295 12.22 4.44295C13.31 4.44295 14.45 4.63295 14.45 4.63295V7.10295H13.19C11.95 7.10295 11.56 7.87295 11.56 8.66295V10.5429H14.34L13.89 13.4429H11.56V20.4429C13.9164 20.0708 16.0622 18.8685 17.6099 17.053C19.1576 15.2376 20.0054 12.9286 20 10.5429C20 5.01295 15.5 0.522949 10 0.522949Z" fill="black"/>
</svg>
