<svg width="58" height="90" viewBox="0 0 58 90" fill="none" xmlns="http://www.w3.org/2000/svg">
<path d="M57.3417 17.6426L52.1913 82.5522L29.0401 89.7728L5.95262 82.5624L0.807678 17.6426H57.3417Z" fill="#E44D26"/>
<path d="M29.0746 84.2536L47.7819 78.4189L52.1833 22.9507H29.0746V84.2536Z" fill="#F16529"/>
<path d="M19.0625 38.8748H29.0747V30.9126H11.3278L11.4972 33.0487L13.2367 54.9902H29.0747V47.0282H19.7093L19.0625 38.8748Z" fill="#EBEBEB"/>
<path d="M20.6576 58.9717H13.5529L14.5445 71.4734L29.0421 76.0011L29.0747 75.991V67.707L29.0437 67.7163L21.1615 65.3219L20.6576 58.9717Z" fill="#EBEBEB"/>
<path d="M6.06763 0H9.6643V3.99769H12.9544V0H16.5512V12.106H12.9546V8.05218H9.66445V12.106H6.06778L6.06763 0Z" fill="black"/>
<path d="M21.281 4.01452H18.1146V0H28.0457V4.01452H24.878V12.106H21.2811L21.281 4.01452Z" fill="black"/>
<path d="M29.6219 0H33.3722L35.6792 4.25368L37.9838 0H41.7356V12.106H38.1537V6.10559L35.6792 10.4099H35.6173L33.1411 6.10559V12.106H29.6219V0Z" fill="black"/>
<path d="M43.5256 0H47.1233V8.10443H52.1813V12.106H43.5256V0Z" fill="black"/>
<path d="M29.0502 54.9904H37.7653L36.9438 65.3167L29.0502 67.7135V75.9972L43.5594 71.4733L43.6659 70.1281L45.329 49.1664L45.5017 47.0283H29.0502V54.9904Z" fill="white"/>
<path d="M29.0502 38.8554V38.8748H46.1457L46.2877 37.0852L46.6101 33.0487L46.7794 30.9126H29.0502V38.8554Z" fill="white"/>
</svg>
