<svg width="93" height="123" viewBox="0 0 93 123" fill="none" xmlns="http://www.w3.org/2000/svg">
<path fill-rule="evenodd" clip-rule="evenodd" d="M0.09375 76.2656V116.344C0.09375 119.839 2.92664 122.672 6.42188 122.672C16.3148 122.672 40.1719 122.672 40.1719 122.672C41.3363 122.672 42.2812 121.727 42.2812 120.562C42.2812 119.398 41.3363 118.453 40.1719 118.453C40.1719 118.453 16.3148 118.453 6.42188 118.453C5.2575 118.453 4.3125 117.508 4.3125 116.344V76.2656C4.3125 75.1012 3.3675 74.1562 2.20312 74.1562C1.03875 74.1562 0.09375 75.1012 0.09375 76.2656ZM48.6094 122.672H86.5781C88.2572 122.672 89.8666 122.005 91.0521 120.818C92.2397 119.632 92.9062 118.023 92.9062 116.344V80.4844C92.9062 79.32 91.9613 78.375 90.7969 78.375C89.6325 78.375 88.6875 79.32 88.6875 80.4844V116.344C88.6875 116.903 88.466 117.441 88.0695 117.835C87.675 118.232 87.1371 118.453 86.5781 118.453H48.6094C47.445 118.453 46.5 119.398 46.5 120.562C46.5 121.727 47.445 122.672 48.6094 122.672ZM40.1719 116.344H53.8828C55.0472 116.344 55.9922 115.399 55.9922 114.234C55.9922 113.07 55.0472 112.125 53.8828 112.125H40.1719C39.0075 112.125 38.0625 113.07 38.0625 114.234C38.0625 115.399 39.0075 116.344 40.1719 116.344ZM37.0078 110.016H57.0469C58.2113 110.016 59.1562 109.071 59.1562 107.906C59.1562 106.742 58.2113 105.797 57.0469 105.797H37.0078C35.8434 105.797 34.8984 106.742 34.8984 107.906C34.8984 109.071 35.8434 110.016 37.0078 110.016ZM33.6265 103.088C34.0209 103.472 34.5483 103.688 35.0988 103.688H57.9012C58.4517 103.688 58.9791 103.472 59.3735 103.088C66.4273 96.2182 73.9219 85.6397 73.9219 71.9625C73.9219 56.8762 61.6369 44.625 46.5 44.625C31.3631 44.625 19.0781 56.8762 19.0781 71.9625C19.0781 85.6397 26.5727 96.2182 33.6265 103.088ZM52.8281 99.4688C55.3024 99.4688 57.0363 99.4688 57.0363 99.4688C63.24 93.2482 69.7031 83.9437 69.7031 71.9625C69.7031 59.2008 59.3039 48.8438 46.5 48.8438C33.6961 48.8438 23.2969 59.2008 23.2969 71.9625C23.2969 83.9437 29.76 93.2482 35.9637 99.4688H40.1719V78.375H35.9531C31.2956 78.375 27.5156 74.595 27.5156 69.9375C27.5156 65.28 31.2956 61.5 35.9531 61.5C40.6106 61.5 44.3906 65.28 44.3906 69.9375V74.1562H48.6094V69.9375C48.6094 65.28 52.3894 61.5 57.0469 61.5C61.7044 61.5 65.4844 65.28 65.4844 69.9375C65.4844 74.595 61.7044 78.375 57.0469 78.375H52.8281V99.4688ZM44.3906 78.375V99.4688H48.6094V78.375H44.3906ZM52.8281 74.1562H57.0469C59.3756 74.1562 61.2656 72.2663 61.2656 69.9375C61.2656 67.6087 59.3756 65.7188 57.0469 65.7188C54.7181 65.7188 52.8281 67.6087 52.8281 69.9375V74.1562ZM40.1719 74.1562V69.9375C40.1719 67.6087 38.2819 65.7188 35.9531 65.7188C33.6244 65.7188 31.7344 67.6087 31.7344 69.9375C31.7344 72.2663 33.6244 74.1562 35.9531 74.1562H40.1719ZM0.09375 15.0938V67.8281C0.09375 68.9925 1.03875 69.9375 2.20312 69.9375C3.3675 69.9375 4.3125 68.9925 4.3125 67.8281V26.1026C4.34836 26.1384 4.38211 26.1743 4.41797 26.2102C7.18758 28.9798 10.9423 30.5344 14.8594 30.5344C25.1805 30.5344 38.0625 30.5344 38.0625 30.5344C39.2269 30.5344 40.1719 29.5894 40.1719 28.425C40.1719 27.2606 39.2269 26.3156 38.0625 26.3156C38.0625 26.3156 25.1805 26.3156 14.8594 26.3156C12.0623 26.3156 9.37922 25.204 7.40062 23.2275C5.42414 21.2489 4.3125 18.5658 4.3125 15.7687C4.3125 15.543 4.3125 15.3195 4.3125 15.0938C4.3125 12.2967 5.42414 9.61359 7.40062 7.635C9.37922 5.65852 12.0623 4.54688 14.8594 4.54688H80.153V13.3219H14.8594C13.695 13.3219 12.75 14.2669 12.75 15.4312C12.75 16.5956 13.695 17.5406 14.8594 17.5406H80.153V26.3156H60.3649H60.3607H46.5C45.3356 26.3156 44.3906 27.2606 44.3906 28.425C44.3906 29.5894 45.3356 30.5344 46.5 30.5344H86.5781C87.7425 30.5344 88.6875 31.4794 88.6875 32.6437V70.9922C88.6875 72.1566 89.6325 73.1016 90.7969 73.1016C91.9613 73.1016 92.9062 72.1566 92.9062 70.9922V32.6437C92.9062 29.1485 90.0734 26.3156 86.5781 26.3156H84.3717V2.4375C84.3717 1.27313 83.4267 0.328125 82.2623 0.328125H14.8594C10.9423 0.328125 7.18758 1.88273 4.41797 4.65234C1.64836 7.42195 0.09375 11.1766 0.09375 15.0938ZM34.8795 42.9544L32.7701 39.3009C32.1879 38.2927 30.897 37.9467 29.8887 38.5289C28.8804 39.1111 28.5345 40.402 29.1166 41.4103L31.226 45.0638C31.8082 46.072 33.0991 46.418 34.1074 45.8358C35.1157 45.2536 35.4616 43.9627 34.8795 42.9544ZM61.774 45.0638L63.8834 41.4103C64.4655 40.402 64.1196 39.1111 63.1113 38.5289C62.103 37.9467 60.8121 38.2927 60.2299 39.3009L58.1205 42.9544C57.5384 43.9627 57.8843 45.2536 58.8926 45.8358C59.9009 46.418 61.1918 46.072 61.774 45.0638ZM48.6094 40.4062V36.1875C48.6094 35.0231 47.6644 34.0781 46.5 34.0781C45.3356 34.0781 44.3906 35.0231 44.3906 36.1875V40.4062C44.3906 41.5706 45.3356 42.5156 46.5 42.5156C47.6644 42.5156 48.6094 41.5706 48.6094 40.4062Z" fill="black"/>
</svg>
