<svg width="20" height="21" viewBox="0 0 20 21" fill="none" xmlns="http://www.w3.org/2000/svg">
<path d="M5.8 0.48291H14.2C17.4 0.48291 20 3.08291 20 6.28291V14.6829C20 16.2212 19.3889 17.6964 18.3012 18.7841C17.2135 19.8718 15.7383 20.4829 14.2 20.4829H5.8C2.6 20.4829 0 17.8829 0 14.6829V6.28291C0 4.74465 0.61107 3.2694 1.69878 2.18169C2.78649 1.09398 4.26174 0.48291 5.8 0.48291ZM5.6 2.48291C4.64522 2.48291 3.72955 2.8622 3.05442 3.53733C2.37928 4.21246 2 5.12813 2 6.08291V14.8829C2 16.8729 3.61 18.4829 5.6 18.4829H14.4C15.3548 18.4829 16.2705 18.1036 16.9456 17.4285C17.6207 16.7534 18 15.8377 18 14.8829V6.08291C18 4.09291 16.39 2.48291 14.4 2.48291H5.6ZM15.25 3.98291C15.5815 3.98291 15.8995 4.11461 16.1339 4.34903C16.3683 4.58345 16.5 4.90139 16.5 5.23291C16.5 5.56443 16.3683 5.88237 16.1339 6.11679C15.8995 6.35121 15.5815 6.48291 15.25 6.48291C14.9185 6.48291 14.6005 6.35121 14.3661 6.11679C14.1317 5.88237 14 5.56443 14 5.23291C14 4.90139 14.1317 4.58345 14.3661 4.34903C14.6005 4.11461 14.9185 3.98291 15.25 3.98291ZM10 5.48291C11.3261 5.48291 12.5979 6.00969 13.5355 6.94738C14.4732 7.88506 15 9.15683 15 10.4829C15 11.809 14.4732 13.0808 13.5355 14.0184C12.5979 14.9561 11.3261 15.4829 10 15.4829C8.67392 15.4829 7.40215 14.9561 6.46447 14.0184C5.52678 13.0808 5 11.809 5 10.4829C5 9.15683 5.52678 7.88506 6.46447 6.94738C7.40215 6.00969 8.67392 5.48291 10 5.48291ZM10 7.48291C9.20435 7.48291 8.44129 7.79898 7.87868 8.36159C7.31607 8.9242 7 9.68726 7 10.4829C7 11.2786 7.31607 12.0416 7.87868 12.6042C8.44129 13.1668 9.20435 13.4829 10 13.4829C10.7956 13.4829 11.5587 13.1668 12.1213 12.6042C12.6839 12.0416 13 11.2786 13 10.4829C13 9.68726 12.6839 8.9242 12.1213 8.36159C11.5587 7.79898 10.7956 7.48291 10 7.48291Z" fill="black"/>
</svg>
