<svg width="65" height="80" viewBox="0 0 65 80" fill="none" xmlns="http://www.w3.org/2000/svg">
<path fill-rule="evenodd" clip-rule="evenodd" d="M50.0277 0L50.2588 2.20271C50.8389 7.69296 48.9476 13.8152 45.2072 18.5838C45.1506 18.6498 45.0846 18.697 45.0327 18.763C45.6553 18.7395 46.2779 18.6923 46.9241 18.7536C49.7447 18.8715 57.1593 19.947 62.0081 27.1776L63.3241 29.1445L61.3525 30.4557C59.6545 31.5312 54.4425 35.4036 54.5133 42.6673C54.5934 51.8649 62.0081 55.2373 62.8524 55.591L64.8758 56.4401L64.1967 58.5343C63.6353 60.3455 62.0175 64.982 58.8573 69.6987C55.8434 74.189 52.0983 79.783 45.7638 79.901C42.7734 79.9764 40.8631 79.0755 39.1132 78.3067C37.4482 77.5709 36.0191 76.9389 33.6513 76.9389C31.1467 76.9389 29.6326 77.5945 27.8781 78.3586C26.2319 79.0755 24.3641 79.8868 21.7746 79.9953C21.6567 80 21.5388 80 21.4303 80C15.2939 80 11.03 73.7126 8.19051 69.5289L7.97439 69.2066C0.873808 58.5023 -3.09644 41.0737 3.45497 29.4653C7.06322 23.0647 13.6289 19.0225 20.5907 18.9187C23.3028 18.881 25.798 19.73 27.9488 20.579C28.3167 15.584 30.6939 10.9239 33.1608 7.91463C36.7454 3.51867 42.7687 0.301875 47.8156 0.0943333L50.0277 0ZM46.5798 23.4562C43.5092 23.1308 40.566 24.3429 37.9482 25.3995C35.9719 26.1965 34.2692 26.8805 32.6891 26.8805C31.3401 26.8805 29.9251 26.423 28.4535 25.8475L28.2271 25.8287L28.2176 25.7579C27.9063 25.6306 27.5951 25.5079 27.2743 25.3806C25.2083 24.541 22.9396 23.442 20.6709 23.6354C15.3741 23.7156 10.3508 26.838 7.56318 31.7858C1.52581 42.4786 6.57743 58.7465 12.096 66.8781C15.0297 71.2033 18.1428 75.4767 21.586 75.2833C23.2934 75.2125 24.482 74.6937 25.9961 74.0381C27.9488 73.1843 30.1657 72.2222 33.6513 72.2222C37.0143 72.2222 39.1415 73.1608 41.0188 73.9909C42.5706 74.6795 43.8582 75.2597 45.6742 75.1842C49.273 75.1182 51.787 71.7788 54.9378 67.0715C57.0037 63.9915 58.3243 60.9587 59.0743 58.9352C55.8811 57.0202 49.8815 52.1668 49.7966 42.7098C49.7258 35.2055 53.8482 30.4322 56.6971 28.0361C53.1407 24.1778 48.5561 23.5411 46.5798 23.4562ZM45.6176 5.19308C42.4291 6.04683 39.0048 8.21179 36.8162 10.8956L36.8115 10.9003C34.8729 13.2681 32.8117 17.183 32.5995 21.211C36.1276 20.6828 39.4858 18.2206 41.4999 15.6689C43.9337 12.57 45.3911 8.80138 45.6176 5.19308Z" fill="black"/>
</svg>
