<svg width="81" height="80" viewBox="0 0 81 80" fill="none" xmlns="http://www.w3.org/2000/svg">
<g clip-path="url(#clip0_170_94)">
<path d="M68.5 0H12.5C5.87258 0 0.5 5.37258 0.5 12V68C0.5 74.6274 5.87258 80 12.5 80H68.5C75.1274 80 80.5 74.6274 80.5 68V12C80.5 5.37258 75.1274 0 68.5 0Z" fill="#F7DF1E"/>
<path d="M51.125 57.8125C52.6875 60.4688 54.875 62.3438 58.4688 62.3438C61.5938 62.3438 63.625 60.7812 63.625 58.5938C63.625 56.0938 61.5938 55.1562 58.1562 53.5938L56.2812 52.8125C50.8125 50.4688 47.2188 47.6562 47.2188 41.5625C47.2188 35.9375 51.4375 31.5625 58.1562 31.5625C63 31.5625 66.4375 33.2812 68.7812 37.6562L63 41.4062C61.75 39.0625 60.3438 38.125 58.1562 38.125C55.9688 38.125 54.5625 39.5312 54.5625 41.4062C54.5625 43.5938 55.9688 44.5312 59.25 45.9375L61.125 46.7188C67.5312 49.5312 71.125 52.1875 71.125 58.5938C71.125 65.3125 65.8125 69.0625 58.625 69.0625C51.5938 69.0625 47.0625 65.7812 44.875 61.4062L51.125 57.8125ZM24.5625 58.4375C25.8125 60.4688 26.75 62.3438 29.4062 62.3438C31.9062 62.3438 33.4688 61.4062 33.4688 57.6562V31.7188H40.9688V57.3438C40.9688 65.1562 36.4375 68.5938 29.7188 68.5938C23.625 68.5938 20.1875 65.4688 18.4688 61.7188L24.5625 58.4375Z" fill="black"/>
</g>
<defs>
<clipPath id="clip0_170_94">
<rect width="80" height="80" fill="white" transform="translate(0.5)"/>
</clipPath>
</defs>
</svg>
