<svg width="18" height="19" viewBox="0 0 18 19" fill="none" xmlns="http://www.w3.org/2000/svg">
<path d="M16 0.48291C16.5304 0.48291 17.0391 0.693624 17.4142 1.0687C17.7893 1.44377 18 1.95248 18 2.48291V16.4829C18 17.0133 17.7893 17.5221 17.4142 17.8971C17.0391 18.2722 16.5304 18.4829 16 18.4829H2C1.46957 18.4829 0.960859 18.2722 0.585786 17.8971C0.210714 17.5221 0 17.0133 0 16.4829V2.48291C0 1.95248 0.210714 1.44377 0.585786 1.0687C0.960859 0.693624 1.46957 0.48291 2 0.48291H16ZM15.5 15.9829V10.6829C15.5 9.8183 15.1565 8.98911 14.5452 8.37774C13.9338 7.76637 13.1046 7.42291 12.24 7.42291C11.39 7.42291 10.4 7.94291 9.92 8.72291V7.61291H7.13V15.9829H9.92V11.0529C9.92 10.2829 10.54 9.65291 11.31 9.65291C11.6813 9.65291 12.0374 9.80041 12.2999 10.063C12.5625 10.3255 12.71 10.6816 12.71 11.0529V15.9829H15.5ZM3.88 6.04291C4.32556 6.04291 4.75288 5.86591 5.06794 5.55085C5.383 5.23579 5.56 4.80847 5.56 4.36291C5.56 3.43291 4.81 2.67291 3.88 2.67291C3.43178 2.67291 3.00193 2.85096 2.68499 3.1679C2.36805 3.48484 2.19 3.91469 2.19 4.36291C2.19 5.29291 2.95 6.04291 3.88 6.04291ZM5.27 15.9829V7.61291H2.5V15.9829H5.27Z" fill="black"/>
</svg>
