<svg width="53" height="54" viewBox="0 0 53 54" fill="none" xmlns="http://www.w3.org/2000/svg">
<path fill-rule="evenodd" clip-rule="evenodd" d="M26.5 4.32954C13.9795 4.32954 3.82954 14.4795 3.82954 27C3.82954 39.5204 13.9795 49.6704 26.5 49.6704C39.0207 49.6704 49.1707 39.5204 49.1707 27C49.1707 14.4795 39.0207 4.32954 26.5 4.32954ZM0.25 27C0.25 12.5025 12.0025 0.75 26.5 0.75C40.9974 0.75 52.7503 12.5025 52.7503 27C52.7503 41.4975 40.9974 53.25 26.5 53.25C12.0025 53.25 0.25 41.4975 0.25 27Z" fill="black"/>
<path fill-rule="evenodd" clip-rule="evenodd" d="M50.3633 28.591H2.63611V25.4092H50.3633V28.591Z" fill="black"/>
<path fill-rule="evenodd" clip-rule="evenodd" d="M24.9088 50.8636V3.13625H28.0906V50.8636H24.9088ZM37.9348 26.9999C37.9348 18.3583 34.8271 9.80925 28.7346 4.15666L30.6282 2.11572C37.3962 8.39493 40.7189 17.7437 40.7189 26.9999C40.7189 36.256 37.3962 45.6049 30.6282 51.8842L28.7346 49.843C34.8271 44.1905 37.9348 35.6415 37.9348 26.9999ZM12.5784 26.9999C12.5784 17.7572 15.7927 8.41323 22.3545 2.13076L24.2799 4.14175C18.3793 9.79116 15.3625 18.3449 15.3625 26.9999C15.3625 35.6549 18.3794 44.2088 24.2799 49.8582L22.3545 51.8691C15.7928 45.5866 12.5784 36.2427 12.5784 26.9999Z" fill="black"/>
<path fill-rule="evenodd" clip-rule="evenodd" d="M26.4998 12.9126C35.1278 12.9126 43.9018 14.508 49.849 17.8304C50.5204 18.2053 50.7606 19.0534 50.3856 19.7246C50.0109 20.3957 49.1625 20.6359 48.4916 20.261C43.1227 17.2619 34.8841 15.6967 26.4998 15.6967C18.1156 15.6967 9.87703 17.2619 4.50818 20.261C3.83697 20.6359 2.98894 20.3957 2.614 19.7246C2.2391 19.0534 2.47925 18.2053 3.15046 17.8304C9.09804 14.508 17.8718 12.9126 26.4998 12.9126ZM26.4998 40.324C35.1278 40.324 43.9018 38.7283 49.849 35.4061C50.5204 35.0312 50.7606 34.1831 50.3856 33.5119C50.0109 32.8407 49.1625 32.6006 48.4916 32.9755C43.1227 35.9745 34.8841 37.5399 26.4998 37.5399C18.1156 37.5399 9.87703 35.9745 4.50818 32.9755C3.83697 32.6006 2.98894 32.8407 2.614 33.5119C2.2391 34.1831 2.47925 35.0312 3.15046 35.4061C9.09804 38.7283 17.8718 40.324 26.4998 40.324Z" fill="black"/>
</svg>
