<svg width="151" height="150" viewBox="0 0 151 150" fill="none" xmlns="http://www.w3.org/2000/svg">
<path d="M75.6759 57.6562C84.5821 57.6562 91.7306 50.5078 91.7306 41.6016C91.7306 32.6953 84.5821 25.4883 75.6759 25.4883C66.7696 25.4883 59.6212 32.6367 59.6212 41.543C59.6212 50.5078 66.8282 57.6562 75.6759 57.6562ZM38.3517 104.18H9.46495C0.089951 104.18 -0.437393 89.8828 9.64073 89.8828H34.6603L49.0157 68.7305C53.2345 62.9883 58.0978 60.2344 64.8946 60.2344H86.2814C93.1368 60.2344 97.9415 62.7539 102.16 68.7891L116.574 89.9414H141.77C151.848 89.9414 151.262 104.238 142.121 104.238H113.234C110.949 104.238 108.195 103.418 106.555 100.957L95.5392 85.2539L95.4806 124.629H56.047L55.9884 85.2539L44.9728 100.957C43.3907 103.359 40.6368 104.18 38.3517 104.18Z" fill="black"/>
<path d="M18.6641 49.2188C9.28906 49.2188 1.67188 56.8359 1.67188 66.2109C1.67188 75.5859 9.28906 83.2031 18.6641 83.2031C28.0391 83.2031 35.6562 75.5859 35.6562 66.2109C35.6562 56.8359 28.0391 49.2188 18.6641 49.2188ZM18.6641 79.8047C11.1641 79.8047 5.01172 73.7109 5.01172 66.1523C5.01172 58.5938 11.1641 52.5586 18.6641 52.5586C26.1641 52.5586 32.3164 58.6523 32.3164 66.2109C32.1992 73.7109 26.1055 79.8047 18.6641 79.8047ZM27.1602 62.8711C26.8672 62.3438 26.1641 61.9922 25.4609 62.4023L19.4258 65.0977V57.9492C19.4258 57.5391 19.3086 57.2461 19.0156 56.9531C18.7813 56.7188 18.4883 56.6602 18.1367 56.6602C17.4922 56.6602 16.7891 57.1289 16.7891 57.9492V67.2656C16.7891 67.793 17.082 68.2617 17.5508 68.4961C17.7852 68.6133 17.9609 68.6719 18.1953 68.6719C18.4297 68.6719 18.6055 68.6133 18.8398 68.4961L26.6328 64.8047C26.9844 64.6289 27.2187 64.3359 27.3359 63.9844C27.3359 63.6328 27.3359 63.2227 27.1602 62.8711Z" fill="black"/>
<path d="M131.457 58.3594V56.1914L129.172 55.7813C128.996 55.0195 128.703 54.3164 128.293 53.7305L129.641 51.8555L128.117 50.332L126.242 51.6797C125.598 51.2695 124.895 50.9766 124.191 50.8008L123.781 48.5156H121.613L121.203 50.8008C120.441 50.9766 119.738 51.2695 119.152 51.6797L117.277 50.332L115.754 51.8555L117.102 53.7305C116.691 54.375 116.398 55.0781 116.223 55.7813L113.938 56.1914V58.3594L116.223 58.7695C116.398 59.5312 116.691 60.2344 117.102 60.8203L115.754 62.6953L117.277 64.2187L119.152 62.8711C119.797 63.2813 120.5 63.5742 121.203 63.75L121.613 66.0352H123.781L124.191 63.75C124.953 63.5742 125.656 63.2813 126.242 62.8711L128.117 64.2187L129.641 62.6953L128.293 60.8203C128.703 60.1758 128.996 59.4727 129.172 58.7695L131.457 58.3594ZM122.668 60.7617C120.734 60.7617 119.211 59.1797 119.211 57.3047C119.211 55.4297 120.793 53.8477 122.668 53.8477C124.602 53.8477 126.125 55.4297 126.125 57.3047C126.125 59.1797 124.602 60.7617 122.668 60.7617ZM146.633 70.8984L149.328 69.2578L148.215 66.5039L145.168 67.207C144.582 66.3867 143.879 65.625 143 65.0391L143.703 61.9922L141.008 60.8789L139.309 63.5156C138.312 63.3398 137.258 63.3398 136.262 63.5156L134.621 60.8789L131.867 61.9922L132.57 65.0391C131.75 65.625 130.988 66.3281 130.402 67.207L127.355 66.5039L126.242 69.1992L128.879 70.8984C128.703 71.8945 128.703 72.9492 128.879 73.9453L126.184 75.5859L127.297 78.3398L130.344 77.6367C130.93 78.457 131.633 79.2187 132.512 79.8047L131.809 82.8516L134.504 83.9648L136.203 81.3281C137.199 81.5039 138.254 81.5039 139.25 81.3281L140.891 83.9648L143.645 82.8516L142.941 79.8047C143.762 79.2187 144.523 78.5156 145.109 77.6367L148.156 78.3398L149.27 75.6445L146.633 73.9453C146.809 72.8906 146.809 71.8945 146.633 70.8984ZM142.062 74.1797C141.066 76.582 138.312 77.6953 135.91 76.6992C133.508 75.7031 132.395 72.9492 133.391 70.5469C134.387 68.1445 137.141 67.0312 139.543 68.0273C141.945 69.0234 143.117 71.7773 142.062 74.1797Z" fill="black"/>
</svg>
