<svg width="77" height="72" viewBox="0 0 77 72" fill="none" xmlns="http://www.w3.org/2000/svg">
<path d="M63.1439 23.4449C62.3535 23.1592 61.5345 22.889 60.6912 22.6334C60.8298 22.0394 60.957 21.4532 61.0701 20.8769C62.9267 11.414 61.7128 3.7907 57.5677 1.28078C53.593 -1.12591 47.0927 1.38345 40.5277 7.38243C39.8964 7.95929 39.2633 8.57004 38.6305 9.21012C38.2089 8.78663 37.7879 8.37737 37.368 7.98592C30.4877 1.57142 23.5913 -1.13174 19.4502 1.38544C15.4793 3.7991 14.3033 10.9658 15.9746 19.9338C16.1359 20.8 16.3246 21.6846 16.5379 22.5839C15.5619 22.8749 14.6196 23.185 13.718 23.5149C5.65159 26.4679 0.5 31.0958 0.5 35.8962C0.5 40.8542 6.03023 45.827 14.432 48.8423C15.0951 49.0802 15.7831 49.3052 16.4921 49.5188C16.2619 50.4916 16.0618 51.4448 15.8937 52.3745C14.3002 61.1869 15.5447 68.1842 19.505 70.5826C23.5956 73.0595 30.4609 70.5136 37.1459 64.3779C37.6743 63.8929 38.2045 63.3785 38.7357 62.8394C39.4243 63.5356 40.1117 64.1945 40.7955 64.8125C47.2707 70.6632 53.6661 73.0258 57.6227 70.6207C61.7093 68.1366 63.0374 60.6198 61.3132 51.4744C61.1815 50.7759 61.0282 50.0624 60.8561 49.3361C61.3382 49.1865 61.8116 49.032 62.2731 48.8714C71.0075 45.8327 76.6905 40.9204 76.6905 35.8962C76.6905 31.0785 71.3728 26.4193 63.1439 23.4449ZM61.2494 45.6274C60.8328 45.7722 60.4053 45.9122 59.9697 46.0479C59.0055 42.8426 57.7041 39.4343 56.1115 35.9129C57.6313 32.4754 58.8823 29.1107 59.8196 25.9262C60.599 26.163 61.3555 26.4128 62.0844 26.6763C69.1349 29.2249 73.4357 32.9929 73.4357 35.8962C73.4357 38.9889 68.791 43.0035 61.2494 45.6274ZM58.1202 52.1381C58.8826 56.1821 58.9915 59.8384 58.4865 62.6966C58.0327 65.2649 57.1201 66.9772 55.9918 67.663C53.5907 69.1223 48.4559 67.2254 42.9182 62.2218C42.2834 61.6482 41.6439 61.0358 41.0025 60.3876C43.1493 57.9222 45.2949 55.0562 47.389 51.8731C51.0722 51.5299 54.5521 50.9689 57.7078 50.2029C57.8632 50.8612 58.0012 51.5069 58.1202 52.1381ZM26.4751 67.4108C24.1291 68.2808 22.2607 68.3057 21.1313 67.6219C18.728 66.1664 17.7289 60.5482 19.0917 53.0119C19.2478 52.1488 19.4336 51.2622 19.6478 50.356C22.7689 51.0807 26.2232 51.6021 29.9153 51.9164C32.0235 55.0311 34.2311 57.894 36.4557 60.4008C35.9697 60.8935 35.4855 61.3626 35.0041 61.8046C32.048 64.5177 29.0857 66.4427 26.4751 67.4108ZM15.4847 45.6084C11.7696 44.2751 8.7015 42.5423 6.59847 40.6514C4.70877 38.9521 3.7547 37.2651 3.7547 35.8962C3.7547 32.9832 7.89091 29.2676 14.7894 26.7421C15.6264 26.4357 16.5027 26.1469 17.412 25.8756C18.3654 29.132 19.616 32.5366 21.1253 35.9794C19.5965 39.4733 18.3281 42.9322 17.3653 46.2267C16.7171 46.0311 16.089 45.8252 15.4847 45.6084ZM19.1688 19.2774C17.7369 11.5939 18.6879 5.79767 21.0809 4.34321C23.6298 2.79377 29.2662 5.00294 35.2068 10.5416C35.5866 10.8956 35.9678 11.2661 36.3501 11.6494C34.1364 14.1452 31.949 16.9867 29.8595 20.083C26.2762 20.4317 22.8462 20.9919 19.6925 21.7421C19.4943 20.9046 19.3186 20.0819 19.1688 19.2774ZM52.0339 27.7984C51.28 26.4311 50.506 25.0961 49.717 23.7976C52.148 24.1203 54.4771 24.5486 56.6643 25.0728C56.0076 27.2825 55.1892 29.593 54.2258 31.9615C53.5347 30.5838 52.8037 29.1947 52.0339 27.7984ZM38.6316 14.0918C40.1329 15.7996 41.6363 17.7064 43.1151 19.7751C41.6249 19.7012 40.1163 19.6628 38.5952 19.6628C37.0885 19.6628 35.591 19.7004 34.1101 19.773C35.5904 17.7234 37.1068 15.8193 38.6316 14.0918ZM25.1434 27.8221C24.3903 29.1932 23.6729 30.5748 22.9927 31.9589C22.0448 29.5987 21.234 27.2777 20.5716 25.0366C22.7454 24.5258 25.0635 24.1082 27.479 23.7916C26.6789 25.1021 25.8985 26.4472 25.1434 27.8221ZM27.5486 48.2447C25.053 47.9523 22.7 47.5562 20.5267 47.0595C21.1997 44.7784 22.0284 42.4079 22.9963 39.9968C23.6783 41.3799 24.3986 42.762 25.1563 44.1362C25.9281 45.5361 26.7278 46.9074 27.5486 48.2447ZM38.7216 57.9416C37.179 56.1939 35.6403 54.2607 34.1375 52.1813C35.5963 52.2414 37.0836 52.2721 38.5952 52.2721C40.1482 52.2721 41.6834 52.2354 43.1945 52.1648C41.7108 54.2817 40.2128 56.2179 38.7216 57.9416ZM54.2568 39.8739C55.2752 42.311 56.1336 44.6692 56.8153 46.9114C54.6062 47.4405 52.2211 47.8667 49.7081 48.1834C50.499 46.8674 51.2797 45.5095 52.0469 44.1127C52.8231 42.6995 53.56 41.2842 54.2568 39.8739ZM49.2276 42.4053C48.0366 44.5736 46.8138 46.6435 45.5725 48.5974C43.3116 48.7671 40.9759 48.8546 38.5952 48.8546C36.2242 48.8546 33.9179 48.7772 31.697 48.6259C30.4057 46.6464 29.1564 44.5703 27.973 42.424C26.7927 40.2834 25.7066 38.1248 24.7223 35.9783C25.7064 33.8268 26.7898 31.6657 27.9633 29.529L27.9631 29.5295C29.1397 27.3871 30.378 25.3211 31.6574 23.354C33.9233 23.1742 36.2469 23.0803 38.5951 23.0803C40.9539 23.0803 43.2806 23.1749 45.5458 23.3563C46.8057 25.309 48.0356 27.3683 49.2168 29.5109C50.4115 31.6777 51.5089 33.8243 52.5014 35.9297C51.5119 38.0713 50.4169 40.2396 49.2276 42.4053ZM55.9419 4.24154C58.4933 5.78642 59.4854 12.0169 57.8824 20.1871C57.7802 20.7084 57.665 21.2394 57.54 21.7775C54.379 21.0117 50.9465 20.4418 47.3528 20.0878C45.2592 16.9575 43.0898 14.1116 40.9121 11.6478C41.4976 11.0565 42.0823 10.4926 42.6645 9.96042C48.2894 4.82053 53.5466 2.7912 55.9419 4.24154ZM38.5952 28.7525C42.3527 28.7525 45.3988 31.9508 45.3988 35.8962C45.3988 39.8416 42.3527 43.04 38.5952 43.04C34.8378 43.04 31.7917 39.8416 31.7917 35.8962C31.7917 31.9508 34.8378 28.7525 38.5952 28.7525Z" fill="#00D8FF"/>
</svg>
