<svg width="127" height="130" viewBox="0 0 127 130" fill="none" xmlns="http://www.w3.org/2000/svg">
<path d="M124.167 65H2.83333C1.63667 65 0.666748 65.9699 0.666748 67.1666C0.666748 100.975 27.3698 128.543 60.8352 129.94C61.1096 130.005 61.3925 130.014 61.668 129.972C62.2766 129.989 62.887 130 63.4999 130C64.1128 130 64.7232 129.989 65.3318 129.972C65.6076 130.015 65.8902 130.005 66.1647 129.94C99.63 128.543 126.333 100.975 126.333 67.1666C126.333 65.9699 125.363 65 124.167 65ZM61.3333 93.2001C54.3164 93.387 47.4485 94.4785 40.8632 96.4143C37.505 88.007 35.6114 78.8651 35.3618 69.3332H61.3333V93.2001ZM61.3333 97.535V125.015C53.3584 118.226 47.0222 109.852 42.6019 100.422C48.6362 98.6944 54.9179 97.7153 61.3333 97.535ZM54.9148 125.04C42.5676 123.224 31.4752 117.551 22.9008 109.284C27.7898 106.177 32.9982 103.65 38.4389 101.744C42.4511 110.467 48.0068 118.357 54.9148 125.04ZM65.6665 125.015V97.5348C72.0819 97.7153 78.3633 98.6941 84.3979 100.421C79.9779 109.851 73.6414 118.226 65.6665 125.015ZM88.561 101.744C94.0014 103.65 99.2098 106.177 104.099 109.284C95.5248 117.551 84.4322 123.224 72.085 125.04C78.993 118.357 84.5487 110.467 88.561 101.744ZM65.6665 93.2001V69.3334H91.6381C91.3887 78.8653 89.4948 88.007 86.1367 96.4143C79.5516 94.4783 72.6837 93.3867 65.6665 93.2001ZM31.0278 69.3334C31.2762 79.3201 33.2401 88.9124 36.7331 97.7511C30.8052 99.8517 25.14 102.652 19.8405 106.101C11.0589 96.2609 5.55292 83.4349 5.03952 69.3334H31.0278ZM107.16 106.101C101.859 102.652 96.1944 99.8517 90.267 97.7511C93.7602 88.9121 95.7239 79.3198 95.9722 69.3334H121.961C121.447 83.4346 115.941 96.2607 107.16 106.101Z" fill="black"/>
<path d="M63.5 26C70.681 26 76.5 20.181 76.5 13C76.5 5.81902 70.681 0 63.5 0C56.319 0 50.5 5.81902 50.5 13C50.5 20.181 56.319 26 63.5 26ZM63.5 4.33342C68.2877 4.33342 72.1666 8.21234 72.1666 13C72.1666 17.7877 68.2877 21.6666 63.5 21.6666C58.7123 21.6666 54.8334 17.7877 54.8334 13C54.8334 8.21234 58.7123 4.33342 63.5 4.33342Z" fill="black"/>
<path d="M78.6664 45.5001C78.6664 37.1252 71.8744 30.3335 63.4998 30.3335C55.1252 30.3335 48.3333 37.1255 48.3333 45.5001V60.6667H78.6667V45.5001H78.6664ZM74.3333 56.3335H52.6667V45.5001C52.6667 39.5186 57.5186 34.6667 63.5001 34.6667C69.4816 34.6667 74.3335 39.5186 74.3335 45.5001V56.3335H74.3333Z" fill="black"/>
<path d="M111.167 26C118.347 26 124.167 20.181 124.167 13C124.167 5.81902 118.347 0 111.167 0C103.986 0 98.1665 5.81902 98.1665 13C98.1665 20.181 103.986 26 111.167 26ZM111.167 4.33342C115.954 4.33342 119.833 8.21234 119.833 13C119.833 17.7877 115.954 21.6666 111.167 21.6666C106.379 21.6666 102.5 17.7877 102.5 13C102.5 8.21234 106.379 4.33342 111.167 4.33342Z" fill="black"/>
<path d="M111.167 30.3335C102.792 30.3335 96 37.1255 96 45.5001V60.6667H126.333V45.5001C126.333 37.1252 119.541 30.3335 111.167 30.3335ZM122 56.3335H100.333V45.5001C100.333 39.5186 105.185 34.6667 111.167 34.6667C117.148 34.6667 122 39.5186 122 45.5001V56.3335Z" fill="black"/>
<path d="M18 26C25.181 26 31 20.181 31 13C31 5.81902 25.181 0 18 0C10.819 0 5 5.81902 5 13C5 20.181 10.819 26 18 26ZM18 4.33342C22.7877 4.33342 26.6666 8.21234 26.6666 13C26.6666 17.7877 22.7877 21.6666 18 21.6666C13.2123 21.6666 9.33342 17.7877 9.33342 13C9.33342 8.21234 13.2123 4.33342 18 4.33342Z" fill="black"/>
<path d="M33.1664 45.5001C33.1664 37.1252 26.3744 30.3335 17.9998 30.3335C9.62524 30.3335 2.83325 37.1255 2.83325 45.5001V60.6667H33.1667L33.1664 45.5001ZM28.8333 56.3335H7.16642V45.5001C7.16642 39.5186 12.0183 34.6667 17.9998 34.6667C23.9814 34.6667 28.8333 39.5186 28.8333 45.5001V56.3335Z" fill="black"/>
</svg>
