<svg width="54" height="54" viewBox="0 0 54 54" fill="none" xmlns="http://www.w3.org/2000/svg">
<path fill-rule="evenodd" clip-rule="evenodd" d="M0.75 27.0001C0.75 12.5026 12.5025 0.75 27.0001 0.75C41.4975 0.75 53.25 12.5026 53.25 27.0001C53.25 41.4977 41.4975 53.2502 27.0001 53.2502C12.5025 53.2502 0.75 41.4977 0.75 27.0001ZM27.0001 4.66311C14.6637 4.66311 4.66311 14.6637 4.66311 27.0001C4.66311 32.7072 6.80341 37.9145 10.3252 41.8626C14.0404 36.6707 20.1241 33.2822 27.0015 33.2822C33.8781 33.2822 39.9611 36.6699 43.6765 41.861C47.1974 37.9129 49.3369 32.7063 49.3369 27.0001C49.3369 14.6637 39.3362 4.66311 27.0001 4.66311ZM40.7935 44.5705C37.8179 40.1203 32.7501 37.1953 27.0015 37.1953C21.2523 37.1953 16.1841 40.1211 13.2084 44.5721C17.006 47.5568 21.7952 49.3371 27.0001 49.3371C32.2058 49.3371 36.9957 47.5564 40.7935 44.5705ZM17.3207 22.9017C17.3207 17.5557 21.6545 13.2219 27.0005 13.2219C32.3465 13.2219 36.6803 17.5557 36.6803 22.9017C36.6803 28.2477 32.3465 32.5815 27.0005 32.5815C21.6545 32.5815 17.3207 28.2477 17.3207 22.9017ZM27.0005 17.135C23.8157 17.135 21.2338 19.7168 21.2338 22.9017C21.2338 26.0865 23.8157 28.6684 27.0005 28.6684C30.1854 28.6684 32.7672 26.0865 32.7672 22.9017C32.7672 19.7168 30.1854 17.135 27.0005 17.135Z" fill="black"/>
</svg>
