<svg width="20" height="15" viewBox="0 0 20 15" fill="none" xmlns="http://www.w3.org/2000/svg">
<path d="M8 10.4829L13.19 7.48291L8 4.48291V10.4829ZM19.56 2.65291C19.69 3.12291 19.78 3.75291 19.84 4.55291C19.91 5.35291 19.94 6.04291 19.94 6.64291L20 7.48291C20 9.67291 19.84 11.2829 19.56 12.3129C19.31 13.2129 18.73 13.7929 17.83 14.0429C17.36 14.1729 16.5 14.2629 15.18 14.3229C13.88 14.3929 12.69 14.4229 11.59 14.4229L10 14.4829C5.81 14.4829 3.2 14.3229 2.17 14.0429C1.27 13.7929 0.69 13.2129 0.44 12.3129C0.31 11.8429 0.22 11.2129 0.16 10.4129C0.0900001 9.61291 0.0599999 8.92291 0.0599999 8.32291L0 7.48291C0 5.29291 0.16 3.68291 0.44 2.65291C0.69 1.75291 1.27 1.17291 2.17 0.92291C2.64 0.79291 3.5 0.70291 4.82 0.64291C6.12 0.57291 7.31 0.54291 8.41 0.54291L10 0.48291C14.19 0.48291 16.8 0.64291 17.83 0.92291C18.73 1.17291 19.31 1.75291 19.56 2.65291Z" fill="black"/>
</svg>
